<svg id="Layer_1" data-name="Layer 1" xmlns="http://www.w3.org/2000/svg" viewBox="0 0 50 50"><defs><style>.cls-1{fill:#fff;}</style></defs><title>Claim-graphics</title><path class="cls-1" d="M49.79,16.32,41.52,43.53a6.56,6.56,0,0,1-6,4.54H7.82A8.53,8.53,0,0,1,.37,42.51,5.58,5.58,0,0,1,.31,38.7c.06-.6.18-1.2.21-1.92,0-.48-.24-.87-.18-1.23.12-.72.75-1.23,1.23-2A21.44,21.44,0,0,0,3.82,28c.15-.57-.15-1.23,0-1.74s.72-1,1-1.53a18,18,0,0,0,2-5.47c.06-.63-.24-1.32-.06-1.8.21-.69.87-1,1.32-1.59a15.82,15.82,0,0,0,2.1-5.44c.06-.51-.24-1-.15-1.56S10.91,7.7,11.39,7c1.26-1.86,1.5-6,5.32-4.89l0,.09a6.81,6.81,0,0,1,1.53-.27H41.07A4.16,4.16,0,0,1,44.5,3.61,4.42,4.42,0,0,1,45,7.51L36.81,34.73c-1.41,4.63-2.19,5.65-6,5.65H4.69a1.39,1.39,0,0,0-1.14.45c-.24.36-.27.63,0,1.29.6,1.74,2.67,2.1,4.33,2.1H35.58a2.86,2.86,0,0,0,2.73-1.71l9-29.65a4.8,4.8,0,0,0,.15-1.71,4,4,0,0,1,1.77,1.29A4.47,4.47,0,0,1,49.79,16.32ZM15.45,21.15H33.71a1.45,1.45,0,0,0,1.26-1l.63-1.92a.67.67,0,0,0-.66-1H16.68a1.45,1.45,0,0,0-1.26,1l-.63,1.92A.67.67,0,0,0,15.45,21.15Zm2.49-7.69H36.21a1.45,1.45,0,0,0,1.26-1l.63-1.92a.67.67,0,0,0-.66-1H19.17a1.45,1.45,0,0,0-1.26,1l-.63,1.92A.67.67,0,0,0,17.94,13.46Z"/></svg>