<svg id="Layer_1" data-name="Layer 1" xmlns="http://www.w3.org/2000/svg" viewBox="0 0 50 50"><defs><style>.cls-1{fill:#fff;}</style></defs><title>Claim-graphics</title><path class="cls-1" d="M39.47,36.66a8.07,8.07,0,0,1-8.07,8.07H8.07A8.07,8.07,0,0,1,0,36.66V13.34A8.07,8.07,0,0,1,8.07,5.27H31.39a7.82,7.82,0,0,1,3.28.7.91.91,0,0,1,.5.64.88.88,0,0,1-.25.81L33.55,8.8a.85.85,0,0,1-.9.23,4.85,4.85,0,0,0-1.26-.17H8.07a4.5,4.5,0,0,0-4.48,4.49V36.66a4.5,4.5,0,0,0,4.48,4.49H31.39a4.5,4.5,0,0,0,4.48-4.49V33.13a.87.87,0,0,1,.25-.62l1.79-1.79a.87.87,0,0,1,1-.2.88.88,0,0,1,.56.81Zm5.38-17.94L26,37.56H17.94V29.48L36.78,10.65ZM28.14,31.62l-4.26-4.26-3.25,3.25v1.57h2.69v2.69h1.57Zm8.16-16.9-9.81,9.81a.64.64,0,1,0,.9.9l9.81-9.81a.64.64,0,1,0-.9-.9Zm10.34,2.22L38.57,8.85l2.58-2.58a2.73,2.73,0,0,1,3.81,0l4.26,4.26a2.73,2.73,0,0,1,0,3.81Z"/></svg>