<svg id="Layer_1" data-name="Layer 1" xmlns="http://www.w3.org/2000/svg" viewBox="0 0 50 50"><defs><style>.cls-1{fill:#fff;}</style></defs><title>Claim-graphics</title><path class="cls-1" d="M23.08,41.35a1.94,1.94,0,0,1-1.92,1.92,1.9,1.9,0,0,1-1.35-.57l-10-10H1.92A1.94,1.94,0,0,1,0,30.77V19.23a1.94,1.94,0,0,1,1.92-1.92H9.8l10-10a1.9,1.9,0,0,1,1.35-.57,1.94,1.94,0,0,1,1.92,1.92ZM30,32.06a1.67,1.67,0,0,1-.75.15,1.92,1.92,0,0,1-1.92-1.92c0-2.28,3.49-1.65,3.49-5.29s-3.49-3-3.49-5.29a1.92,1.92,0,0,1,1.92-1.92,1.67,1.67,0,0,1,.75.15,7.68,7.68,0,0,1,0,14.12Zm3,7.09a2.24,2.24,0,0,1-.75.15,1.92,1.92,0,0,1-.78-3.7,15.57,15.57,0,0,0,2.28-1.32,11.49,11.49,0,0,0,0-18.57,15.57,15.57,0,0,0-2.28-1.32,1.92,1.92,0,0,1,.75-3.7,2.27,2.27,0,0,1,.78.15,15.41,15.41,0,0,1,0,28.31Zm3,7.06a2.28,2.28,0,0,1-.78.15,1.92,1.92,0,0,1-.75-3.7c.42-.24.9-.39,1.35-.63a21,21,0,0,0,2.46-1.53,19.25,19.25,0,0,0,0-31A21,21,0,0,0,35.85,8c-.45-.24-.93-.39-1.35-.63a1.92,1.92,0,0,1,.75-3.7,2.28,2.28,0,0,1,.78.15,23.09,23.09,0,0,1,0,42.43Z"/></svg>