<svg id="Layer_1" data-name="Layer 1" xmlns="http://www.w3.org/2000/svg" viewBox="0 0 50 50"><defs><style>.cls-1{fill:#fff;}</style></defs><title>Claim-graphics</title><path class="cls-1" d="M46.15,50a3.77,3.77,0,0,1-2.7-1.14L33.14,38.58a21.17,21.17,0,1,1,5.44-5.44L48.89,43.45A3.85,3.85,0,0,1,46.15,50Zm-25-42.31A13.46,13.46,0,1,0,34.62,21.15,13.48,13.48,0,0,0,21.15,7.69Z"/><path class="cls-1" d="M24.81,21.8a2.88,2.88,0,0,0-1.38,1.9.67.67,0,0,1-.57.69H19.41c-.32,0-.52-.49-.52-.8v-.65c0-1.74,1.72-3.23,3-3.8,1.11-.5,1.57-1,1.57-1.9s-1-1.52-2.21-1.52a3,3,0,0,0-1.55.42,8.17,8.17,0,0,0-1.54,1.65.59.59,0,0,1-.45.23.66.66,0,0,1-.36-.12L15,16.1a.57.57,0,0,1-.14-.76,7.29,7.29,0,0,1,6.66-3.82C24.58,11.52,28,14,28,17.26,28,20,26.17,21,24.81,21.8Zm-1.32,7.53a.58.58,0,0,1-.57.57H19.47a.58.58,0,0,1-.57-.57V25.88a.58.58,0,0,1,.57-.57h3.45a.58.58,0,0,1,.57.57Z"/></svg>