<svg id="Layer_1" data-name="Layer 1" xmlns="http://www.w3.org/2000/svg" viewBox="0 0 50 50"><defs><style>.cls-1{fill:#fff;}</style></defs><title>Claim-graphics</title><path class="cls-1" d="M45,40.26c-3.67,0-4.63-3.33-7.93-3.33-2.4,0-3.31,1.5-3.31,3.73s1,4.6.93,6.91v.15c-.33,0-.66,0-1,0-3.09.3-6.22.9-9.35.9-2.13,0-4.36-.84-4.36-3.31,0-3.31,3.34-4.27,3.34-7.93,0-3.28-2.58-5-5.68-5s-6.07,1.74-6.07,5.2c0,3.82,2.91,5.47,2.91,7.54a3.9,3.9,0,0,1-1.38,2.68,5,5,0,0,1-3.52,1.05,46.76,46.76,0,0,1-7.36-.72C1.65,48,1.08,48,.54,47.86L.15,47.8c-.06,0-.15,0-.15-.06V17c.12.09,1.89.3,2.19.36a46.76,46.76,0,0,0,7.36.72A5,5,0,0,0,13.07,17a3.9,3.9,0,0,0,1.38-2.68c0-2.07-2.91-3.73-2.91-7.54,0-3.45,2.91-5.2,6.1-5.2s5.65,1.77,5.65,5c0,3.67-3.34,4.63-3.34,7.93,0,2.46,2.22,3.31,4.36,3.31,3.46,0,6.88-.78,10.31-1V17c-.09.12-.3,1.89-.36,2.19a46.62,46.62,0,0,0-.72,7.36A5,5,0,0,0,34.59,30a3.89,3.89,0,0,0,2.67,1.38c2.07,0,3.73-2.91,7.54-2.91,3.46,0,5.2,2.91,5.2,6.07S48.23,40.26,45,40.26Z"/></svg>