<svg id="Layer_1" data-name="Layer 1" xmlns="http://www.w3.org/2000/svg" viewBox="0 0 50 50"><defs><style>.cls-1{fill:#fff;}</style></defs><title>Claim-graphics</title><path class="cls-1" d="M29.17,47.68H21.06l-5.2-8.24-.78-1.37a1.75,1.75,0,0,1-.36-.69h-.1a6.15,6.15,0,0,1-.29.69c-.2.39-.49.92-.82,1.44L8.44,47.68H0V42.22H4.19l6.44-9.52-6-8.9H.1V18.31h9l4.55,7.46c.29.46.52,1,.75,1.37a1.76,1.76,0,0,1,.36.69h.1a2.34,2.34,0,0,1,.36-.69l.82-1.37,4.58-7.46H29v5.49H25l-6,8.73,6.67,9.68h3.56ZM50,26.75H33.19l-.1-.88A12.12,12.12,0,0,1,33,24.36c0-8.93,11.44-9.68,11.44-14.42a3,3,0,0,0-3.27-2.85A5,5,0,0,0,38,8.37a10.63,10.63,0,0,0-1.18,1.24l-3.43-3a10.79,10.79,0,0,1,2.06-2.16,9.7,9.7,0,0,1,6.15-2.12c4.74,0,8,2.78,8,7.13,0,7.85-10.86,8.5-11.31,13.18h7.59V20H50Z"/></svg>